<?xml version="1.0" encoding="UTF-8" standalone="no"?>
<!-- Created with Inkscape (http://www.inkscape.org/) -->

<svg
   width="210mm"
   height="297mm"
   viewBox="0 0 210 297"
   version="1.1"
   id="svg1"
   xml:space="preserve"
   inkscape:version="1.3 (0e150ed6c4, 2023-07-21)"
   sodipodi:docname="fonatnka.svg"
   xmlns:inkscape="http://www.inkscape.org/namespaces/inkscape"
   xmlns:sodipodi="http://sodipodi.sourceforge.net/DTD/sodipodi-0.dtd"
   xmlns="http://www.w3.org/2000/svg"
   xmlns:svg="http://www.w3.org/2000/svg"
   xmlns:osb="http://www.openswatchbook.org/uri/2009/osb"><sodipodi:namedview
     id="namedview1"
     pagecolor="#ffffff"
     bordercolor="#000000"
     borderopacity="0.25"
     inkscape:showpageshadow="2"
     inkscape:pageopacity="0.0"
     inkscape:pagecheckerboard="0"
     inkscape:deskcolor="#d1d1d1"
     inkscape:document-units="mm"
     inkscape:zoom="0.49575348"
     inkscape:cx="243.06436"
     inkscape:cy="511.34286"
     inkscape:window-width="1920"
     inkscape:window-height="1001"
     inkscape:window-x="-9"
     inkscape:window-y="-9"
     inkscape:window-maximized="1"
     inkscape:current-layer="layer1" /><defs
     id="defs1"><inkscape:path-effect
       effect="mirror_symmetry"
       start_point="50.738645,38.74263"
       end_point="50.738645,40.308022"
       center_point="50.738645,39.525326"
       id="path-effect3128"
       is_visible="true"
       lpeversion="1"
       mode="free"
       discard_orig_path="false"
       fuse_paths="false"
       oposite_fuse="false"
       split_items="false"
       lpesatellites="" /><inkscape:path-effect
       effect="mirror_symmetry"
       start_point="48.627467,38.74263"
       end_point="48.627467,40.308022"
       center_point="48.627467,39.525326"
       id="path-effect3125"
       is_visible="true"
       lpeversion="1"
       mode="X"
       discard_orig_path="false"
       fuse_paths="false"
       oposite_fuse="false"
       split_items="false" /><linearGradient
       id="linearGradient2810"
       osb:paint="solid"><stop
         style="stop-color:#008dab;stop-opacity:1;"
         offset="0"
         id="stop2808" /></linearGradient></defs><g
     inkscape:label="Warstwa 1"
     inkscape:groupmode="layer"
     id="layer1"
     transform="matrix(22.558635,0,0,22.558635,-3708.5494,-4106.8803)"><g
       inkscape:label="Warstwa 1"
       id="layer1-0"
       style="display:inline"
       transform="translate(122.81762,146.19529)"><path
         fill="#99aab5"
         d="m 42.545253,43.199518 v 1.474197 c 0,0.814432 1.629102,1.474416 3.638773,1.474416 2.009673,0 3.638775,-0.659984 3.638775,-1.47419 v -1.474198 h -7.277548 z"
         id="path1"
         style="stroke-width:0.219689" /><ellipse
         fill="#e1e8ed"
         cx="46.184032"
         cy="43.199516"
         rx="3.6387737"
         ry="1.4741923"
         id="ellipse1"
         style="stroke-width:0.219689" /><path
         fill="#aab8c2"
         d="m 46.184026,42.609885 c 1.434106,0 2.635755,0.376103 2.978014,0.884565 0.06359,-0.09449 0.101038,-0.192783 0.101038,-0.294932 0,-0.651409 -1.378451,-1.179483 -3.079045,-1.179483 -1.700593,0 -3.079044,0.528074 -3.079044,1.179483 0,0.101926 0.03745,0.200454 0.101038,0.294932 0.342258,-0.508462 1.543907,-0.884565 2.978013,-0.884565 z"
         id="path2"
         style="stroke-width:0.219689" /><ellipse
         fill="#3b88c3"
         cx="46.184032"
         cy="43.49445"
         rx="2.9780152"
         ry="0.88456053"
         id="ellipse2"
         style="stroke-width:0.219689" /><path
         fill="#50a5e6"
         d="m 46.184026,43.020262 c -0.962565,0 -2.060187,0.289746 -2.060187,0.474188 0,0.184443 1.097837,0.473956 2.060187,0.473956 0.962351,0 2.060188,-0.289513 2.060188,-0.473956 0,-0.184442 -1.097622,-0.474188 -2.060188,-0.474188 z"
         id="path3"
         style="stroke-width:0.219689" /><path
         fill="#e1e8ed"
         d="m 45.541891,43.130072 v 0.312289 c 0,0.124693 0.287458,0.225479 0.642135,0.225479 0.354672,0 0.642136,-0.100793 0.642136,-0.225479 v -0.312289 z"
         id="path4"
         style="stroke-width:0.219689" /><ellipse
         fill="#aab8c2"
         cx="46.184032"
         cy="43.130074"
         rx="0.64213651"
         ry="0.2254806"
         id="ellipse4"
         style="stroke-width:0.219689" /><path
         fill="#1c6399"
         d="m 44.257614,41.590264 a 0.21404552,0.22548061 0 0 1 -0.214045,-0.225479 v -0.289966 c 0,-0.683884 0.528054,-1.240147 1.177254,-1.240147 0.649195,0 1.17725,0.556263 1.17725,1.240147 a 0.21404602,0.22548113 0 1 1 -0.428092,0 c 0,-0.435183 -0.336052,-0.789188 -0.749158,-0.789188 -0.413112,0 -0.749164,0.354005 -0.749164,0.789188 v 0.289966 a 0.21404552,0.22548061 0 0 1 -0.214045,0.225479 z"
         id="path5"
         style="stroke-width:0.219689" /><path
         fill="#88c9f9"
         d="M 47.896387,42.089479 A 0.21404552,0.22548061 0 0 1 47.682342,41.864 v -0.257722 c 0,-0.372948 -0.288102,-0.67645 -0.642136,-0.67645 -0.354031,0 -0.642133,0.303502 -0.642133,0.67645 a 0.21404602,0.22548113 0 1 1 -0.428092,0 c 0,-0.621657 0.480104,-1.127409 1.070225,-1.127409 0.590123,0 1.070227,0.505752 1.070227,1.127409 V 41.864 a 0.21404552,0.22548061 0 0 1 -0.214046,0.225479 z"
         id="path6"
         style="stroke-width:0.219689" /><path
         fill="#1c6399"
         d="M 49.180665,40.5393 A 0.21404552,0.22548061 0 0 1 48.96662,40.313821 c 0,-0.746114 -0.575997,-1.352882 -1.284278,-1.352882 -0.708273,0 -1.284269,0.606768 -1.284269,1.352882 a 0.21404602,0.22548113 0 1 1 -0.428092,0 c 0,-0.994597 0.768207,-1.80385 1.712361,-1.80385 0.944156,0 1.712368,0.809253 1.712368,1.80385 A 0.21404552,0.22548061 0 0 1 49.180665,40.5393 Z"
         id="path7"
         style="stroke-width:0.219689" /><path
         fill="#3b94d9"
         d="m 45.969981,43.139991 h 0.428092 v -3.305319 c 0,-0.994595 -0.768214,-1.803843 -1.712369,-1.803843 -0.944156,0 -1.712361,0.809248 -1.712361,1.803843 a 0.21404561,0.2254807 0 0 0 0.428091,0 c 0,-0.746114 0.575997,-1.352882 1.28427,-1.352882 0.708281,0 1.284277,0.606768 1.284277,1.352882 z"
         id="path8"
         style="stroke-width:0.219689" /><ellipse
         fill="#1c6399"
         cx="49.18066"
         cy="41.187557"
         id="circle8"
         style="stroke-width:0.219689"
         rx="0.21404552"
         ry="0.2254806" /><ellipse
         fill="#bbddf5"
         cx="47.896385"
         cy="42.765923"
         id="circle9"
         style="stroke-width:0.219689"
         rx="0.21404552"
         ry="0.2254806" /><ellipse
         fill="#bbddf5"
         cx="49.394707"
         cy="38.481781"
         id="circle10"
         style="stroke-width:0.219689"
         rx="0.21404552"
         ry="0.2254806" /><ellipse
         fill="#f2f9ff"
         cx="45.327839"
         cy="42.54044"
         id="circle11"
         style="stroke-width:0.219689"
         rx="0.21404552"
         ry="0.2254806" /><ellipse
         fill="#50a5e6"
         cx="47.896385"
         cy="40.060146"
         id="circle12"
         style="stroke-width:0.219689"
         rx="0.21404552"
         ry="0.2254806" /><ellipse
         fill="#1c6399"
         cx="46.612114"
         cy="38.25631"
         id="circle13"
         style="stroke-width:0.219689"
         rx="0.21404552"
         ry="0.2254806" /><ellipse
         fill="#1c6399"
         cx="44.25761"
         cy="42.089481"
         id="circle14"
         style="stroke-width:0.219689"
         rx="0.21404552"
         ry="0.2254806" /><ellipse
         fill="#3b94d9"
         cx="43.187386"
         cy="40.96207"
         id="circle15"
         style="stroke-width:0.219689"
         rx="0.21404552"
         ry="0.2254806" /><ellipse
         fill="#88c9f9"
         cx="44.685711"
         cy="39.158234"
         id="circle16"
         style="stroke-width:0.219689"
         rx="0.21404552"
         ry="0.2254806" /></g></g></svg>
